<?xml version="1.0" encoding="utf-8"?>
<!-- Generator: Adobe Illustrator 22.0.1, SVG Export Plug-In . SVG Version: 6.00 Build 0)  -->
<svg version="1.1" id="Capa_1" xmlns="http://www.w3.org/2000/svg" xmlns:xlink="http://www.w3.org/1999/xlink" x="0px" y="0px"
	 viewBox="0 0 75 75" style="enable-background:new 0 0 75 75;" xml:space="preserve">
<style type="text/css">
	.st0{fill:#F2F2F2;}
	.st1{fill:#5600C2;}
	.st2{fill:url(#SVGID_1_);}
	.st3{fill:#8FFFFF;}
	.st4{fill:#383838;}
	.st5{fill:#FFFFFF;}
	.st6{fill:none;stroke:#37474F;stroke-miterlimit:10;}
	.st7{fill:none;stroke:#37474F;stroke-linecap:round;stroke-linejoin:round;}
	.st8{fill:none;stroke:#37474F;stroke-linecap:round;stroke-linejoin:round;stroke-dasharray:0,4.7103;}
	.st9{fill:none;stroke:#37474F;stroke-width:6;stroke-miterlimit:10;}
	.st10{fill:none;stroke:url(#SVGID_4_);stroke-width:4;stroke-miterlimit:10;}
	.st11{fill:none;stroke:#37474F;stroke-linecap:round;stroke-linejoin:round;stroke-dasharray:0,4.5433;}
	.st12{fill:none;stroke:url(#SVGID_5_);stroke-width:4;stroke-miterlimit:10;}
	.st13{fill:url(#SVGID_6_);}
	.st14{fill:none;stroke:url(#SVGID_7_);stroke-width:4;stroke-miterlimit:10;}
	.st15{fill:none;stroke:url(#SVGID_8_);stroke-width:4;stroke-miterlimit:10;}
	.st16{fill:url(#SVGID_9_);}
	.st17{fill:url(#SVGID_10_);}
	.st18{fill:none;stroke:url(#SVGID_11_);stroke-width:4;stroke-miterlimit:10;}
	.st19{fill:url(#SVGID_12_);}
	.st20{fill:none;stroke:url(#SVGID_13_);stroke-width:4;stroke-miterlimit:10;}
	.st21{fill:#A8A8A8;}
	.st22{fill:none;stroke:#5600C2;stroke-miterlimit:10;}
	.st23{fill:#AD635C;}
	.st24{fill:#D68669;}
	.st25{opacity:0.31;fill:#942F2F;}
	.st26{fill:#2B5E80;}
	.st27{fill:#E89972;}
	.st28{fill:#5C9FCC;}
	.st29{fill:#81BACC;}
	.st30{opacity:0.23;fill:#413BA6;}
	.st31{opacity:0.24;fill:#78192C;}
	.st32{fill:#715CAD;}
	.st33{opacity:0.38;fill:#483287;}
	.st34{fill:#4985AD;}
	.st35{opacity:0.25;}
	.st36{fill:#18537A;}
	.st37{opacity:0.15;}
	.st38{fill:#FFFFFF;stroke:#000000;stroke-width:0.9083;stroke-miterlimit:10;}
	.st39{opacity:0.39;fill:#082957;}
	.st40{fill:#4F3C82;}
	.st41{fill:#3B0A04;}
	.st42{opacity:0.39;fill:#1F0300;}
	.st43{fill:#853D37;}
	.st44{fill:#691207;}
	.st45{fill:#571B39;}
	.st46{fill:#E84D75;}
	.st47{fill:none;stroke:#383838;stroke-miterlimit:10;}
	.st48{opacity:6.000000e-02;fill:#FFFFFF;}
	.st49{fill-rule:evenodd;clip-rule:evenodd;fill:#FFA794;}
	.st50{fill-rule:evenodd;clip-rule:evenodd;fill:#000101;}
	.st51{fill:#FFA794;}
	.st52{clip-path:url(#SVGID_17_);}
	.st53{fill-rule:evenodd;clip-rule:evenodd;fill:#ECE8E9;}
	.st54{clip-path:url(#SVGID_19_);}
	.st55{fill:#0077C7;}
	.st56{fill-rule:evenodd;clip-rule:evenodd;fill:#008DFF;}
	.st57{fill:#000101;}
	.st58{fill-rule:evenodd;clip-rule:evenodd;fill:#C42B54;}
	.st59{fill-rule:evenodd;clip-rule:evenodd;fill:#0077C7;}
	.st60{clip-path:url(#SVGID_21_);}
	.st61{clip-path:url(#SVGID_23_);}
	.st62{fill:none;stroke:#383838;stroke-linecap:round;stroke-linejoin:round;}
	.st63{fill:none;stroke:#383838;stroke-linecap:round;stroke-linejoin:round;stroke-dasharray:0,5.1058;}
	.st64{fill:none;stroke:#5600C2;stroke-width:4;stroke-miterlimit:10;}
	.st65{opacity:0.64;fill:#939393;}
	.st66{fill:none;stroke:#383838;stroke-linecap:round;stroke-linejoin:round;stroke-dasharray:0,4.8924;}
	.st67{fill:url(#SVGID_26_);}
	.st68{fill:url(#SVGID_27_);}
	.st69{opacity:0.22;fill:#FFFFFF;}
	.st70{fill:#C4C4C4;}
	.st71{fill:url(#SVGID_32_);}
	.st72{fill:url(#SVGID_33_);}
	.st73{fill:url(#SVGID_34_);}
	.st74{fill:url(#SVGID_35_);}
	.st75{fill:url(#SVGID_36_);}
	.st76{fill:url(#SVGID_37_);}
	.st77{fill:url(#SVGID_38_);}
	.st78{fill:url(#SVGID_39_);}
	.st79{fill:url(#SVGID_40_);}
	.st80{fill:#E0973F;}
	.st81{fill:#2A6291;}
	.st82{fill:#4D8FC5;}
	.st83{fill:#FFB10F;}
	.st84{fill:#FFEC03;}
	.st85{opacity:0.74;fill:#7CA9D3;}
	.st86{fill:#923633;}
	.st87{fill:#7C1E1E;}
	.st88{fill:#750C0C;}
	.st89{fill:#D73931;}
	.st90{fill:#FFCF03;}
	.st91{fill:#9EA8BA;}
	.st92{fill:#911919;}
	.st93{opacity:0.61;fill:#911919;}
	.st94{fill:#FFB600;}
	.st95{fill:#2D2465;}
	.st96{fill:#FF8B00;}
	.st97{fill:#FFFF03;}
	.st98{fill:#FFF8C5;}
	.st99{fill:#0F4E9E;}
	.st100{fill:#798093;}
	.st101{fill:#FFAA2E;}
	.st102{fill:#FF9912;}
	.st103{fill:#FF1F1F;}
	.st104{fill:#FFDC01;}
	.st105{fill:#893003;}
	.st106{fill:#7A2B03;}
	.st107{fill:#FFA30F;}
	.st108{fill:#D67205;}
	.st109{fill:#BD6504;}
	.st110{fill:#E09C0D;}
	.st111{fill:#FFF8A4;}
	.st112{fill:#FFCC00;}
	.st113{fill:#F9C569;}
	.st114{fill:#FFC536;}
	.st115{opacity:0.51;fill:#FFC536;}
	.st116{fill:#7A2B02;}
	.st117{fill:#EABE06;}
	.st118{fill:#FFD110;}
	.st119{fill:#FFD938;}
	.st120{fill:#E8BC03;}
	.st121{fill:#FFCA5C;}
	.st122{opacity:0.43;fill:#FFDC01;}
	.st123{fill:#FFE7B6;}
	.st124{fill:#FFB703;}
	.st125{fill:#FFF876;}
	.st126{fill:#D68A05;}
	.st127{fill:#F7A006;}
	.st128{opacity:0.44;fill:#FFB600;}
	.st129{opacity:0.31;fill:#FFB600;}
	.st130{fill:#B25B06;}
	.st131{fill:#ED980E;}
	.st132{fill:#FFB303;}
	.st133{fill:#FFED78;}
	.st134{fill:#317993;}
	.st135{opacity:0.57;fill:#317993;}
	.st136{opacity:0.48;fill:#FFEC03;}
	.st137{fill:#C5D4EA;}
	.st138{fill:#889BB5;}
	.st139{opacity:0.67;fill:#C5D4EA;}
	.st140{opacity:0.45;fill:#C5D4EA;}
	.st141{fill:#FFE100;}
	.st142{fill:#FF2E2A;}
	.st143{fill:#E3211E;}
	.st144{opacity:0.68;fill:#A21533;}
	.st145{fill:#FFCF13;}
	.st146{opacity:0.71;fill:#D67205;}
	.st147{fill:#FFF375;}
	.st148{fill:#F28F0E;}
	.st149{fill:#FCE0E0;}
	.st150{fill:#FF930F;}
	.st151{fill:#892020;}
	.st152{fill:#6B7384;}
	.st153{fill:#FF740D;}
	.st154{fill:#CAD5E5;}
	.st155{fill:#BAC6D8;}
	.st156{fill:#8E2323;}
	.st157{fill:#C95506;}
	.st158{fill:#7F0B0B;}
	.st159{fill:#FFB839;}
	.st160{fill:#EA7603;}
	.st161{fill:#FF9B50;}
	.st162{opacity:0.69;}
	.st163{fill:#FFB448;}
	.st164{fill:#FF970F;}
	.st165{opacity:0.63;fill:#FFB10F;}
	.st166{fill:#FFC001;}
	.st167{fill:#E8860E;}
	.st168{fill:#F08300;}
	.st169{fill:#FFEC73;}
	.st170{fill:#BA6304;}
	.st171{fill:#FFC003;}
	.st172{fill:#FFA303;}
	.st173{opacity:0.27;fill:#FFB600;}
	.st174{fill:#FF8800;}
	.st175{fill:#C96B05;}
	.st176{opacity:0.47;fill:#FF8B00;}
	.st177{opacity:0.35;fill:#FFB600;}
	.st178{fill:#E87E00;}
	.st179{fill:#FFEA01;}
	.st180{fill:#CC6F00;}
	.st181{fill:#FF5E00;}
	.st182{opacity:0.69;fill:#FF8B00;}
	.st183{fill:#FF9E03;}
	.st184{fill:#F58500;}
	.st185{fill:#E67D00;}
	.st186{opacity:0.49;fill:#FFB600;}
	.st187{fill:#DB7700;}
	.st188{fill:#6B7282;}
	.st189{fill:#9DAED1;}
	.st190{fill:#A21533;}
	.st191{fill:#B0B9CC;}
	.st192{opacity:0.43;}
	.st193{fill:#8A99AD;}
	.st194{fill:#CEDDF4;}
	.st195{fill:#FF8500;}
	.st196{fill:#FFAF57;}
	.st197{fill:#DB4B51;}
	.st198{fill:#9A212F;}
	.st199{fill:#ED8A29;}
	.st200{fill:#FF952C;}
	.st201{opacity:0.31;}
	.st202{fill:#DD722A;}
	.st203{fill:#DD542F;}
	.st204{fill:#F95E19;}
	.st205{fill:#F78E39;}
	.st206{fill:#ED1C24;}
	.st207{fill:#FFA506;}
	.st208{fill:#CF3348;}
	.st209{opacity:0.48;fill:#9A212F;}
	.st210{fill:#FF9700;}
	.st211{fill:#FF7300;}
	.st212{fill:#939393;}
	.st213{fill:#AAAAAA;}
	.st214{fill:url(#SVGID_43_);}
	.st215{fill:url(#SVGID_44_);}
	.st216{fill:url(#SVGID_45_);}
	.st217{fill:#DFDEE0;}
	.st218{fill:none;stroke:#939393;stroke-width:4;stroke-miterlimit:10;}
	.st219{fill:url(#SVGID_48_);}
	.st220{fill:url(#SVGID_49_);}
	.st221{fill:#F4F4F4;}
	.st222{fill:#EFEFEF;}
	.st223{fill:#E8BB00;}
	.st224{fill:#474747;}
	.st225{fill:none;stroke:#5502C6;stroke-miterlimit:10;}
	.st226{opacity:0.43;fill:url(#SVGID_62_);}
	.st227{fill:#EAEAEA;}
	.st228{fill:#FFED00;}
	.st229{fill:#FF2600;}
	.st230{fill:#0074BF;}
	.st231{fill:#00B600;}
	.st232{fill:#FF8700;}
	.st233{fill:#C82DB3;}
	.st234{fill:#00C6A0;}
	.st235{fill:#FFB200;}
	.st236{fill:#F22540;}
	.st237{fill:#0040BA;}
	.st238{fill:#FFDF00;}
	.st239{fill:#4D22B3;}
	.st240{fill:#A92BBC;}
	.st241{fill:#D2278D;}
	.st242{fill:#00AFCF;}
	.st243{fill:#DCED00;}
	.st244{fill:#70C700;}
	.st245{fill:#FF5700;}
	.st246{fill:#FFD000;}
	.st247{fill:#BADF00;}
	.st248{fill:#FF7900;}
	.st249{fill:#0229BA;}
	.st250{fill:#FF9300;}
	.st251{fill:#7524AF;}
	.st252{fill:#3BBE00;}
	.st253{fill:#CCCCCC;}
	.st254{fill:#B3B3B3;}
	.st255{fill:#808080;}
	.st256{fill:#4D4D4D;}
	.st257{fill:none;stroke:#A8A8A8;stroke-miterlimit:10;}
	.st258{opacity:0.86;fill:#2D2D2D;}
	.st259{fill:#7F7F7F;}
	.st260{fill:none;stroke:#7F7F7F;stroke-miterlimit:10;}
</style>
<g>
	<path class="st5" d="M70.8,17.5c-0.1,0-5.9,0.1-12.9,1.7c-6.6,1.5-15.6,4.8-21.2,11.4C32.1,36.2,30.5,43,31.8,51l0,0.2
		c0.2,0.8,2.3,8,4.3,11.8l1.1,2.1c0.4,0.7,1.4,0.6,1.6-0.2l0.6-2.3c0-0.1,2.2-8.7,6.9-14.2c1.9-2.2,4.4-3.7,7.3-4.1l3.9-0.6
		c3.7-0.6,3.9-0.7,4.1-0.9c0.3-0.2,0.5-0.3,0.7-0.3c1.6-0.7,2.3-1.3,4.2-4.7c3-5.1,5.7-16.8,6-18.1l0.5-2.2L70.8,17.5z M68.6,21.1
		c-0.9,3.7-3,11.4-5.1,14.9c-1.6,2.8-1.9,2.9-2.6,3.2c-0.2,0.1-0.5,0.2-0.8,0.4c-0.6,0.1-2.8,0.5-3.3,0.6L53,40.9
		c-3.7,0.6-7,2.5-9.4,5.3c-2.9,3.5-4.9,7.8-6.2,11.1c-1.1-3-2.1-6.2-2.3-6.9c-1.1-7,0.3-12.8,4.1-17.4c5-5.9,13.2-8.9,19.3-10.3
		C62.7,21.7,66.3,21.3,68.6,21.1z"/>
	<path class="st5" d="M27.6,34.3C25.8,29.8,21.2,26,14,23.1c-5.2-2.1-9.8-2.9-10-2.9l-2.2-0.4L1.9,22c0,0.4,0.3,4.2,1,8.1
		c1.2,6.1,2.9,9.5,5.4,10.4c0.5,0.2,1.2,0.4,1.9,0.6c4.6,1.4,14.3,4.5,15.3,9.2l0.5,2.4c0.2,0.8,1.2,0.9,1.6,0.2l1.1-2.2
		C29.1,50.2,31.8,44.5,27.6,34.3z M26.5,45.3c-3.8-3.9-10.7-6-15.2-7.4c-0.7-0.2-1.3-0.4-1.8-0.6C7.9,36.7,6.2,31,5.6,24.1
		c4.8,1.2,16,4.6,18.8,11.5C26.1,39.7,26.5,42.9,26.5,45.3z"/>
</g>
</svg>
